<svg width="324" height="44" viewBox="0 0 324 44" fill="none" xmlns="http://www.w3.org/2000/svg">
<path d="M216 38.7839H108V43.7839H216V38.7839Z" fill="#225380"/>
<path d="M132.155 8.98926L128.958 23.2422C128.958 23.318 128.958 23.318 129.035 23.318H131.851C131.927 23.318 131.927 23.2422 131.927 23.2422L133.221 17.5562C133.221 17.4803 133.297 17.4803 133.297 17.4803H138.016C138.092 17.4803 138.092 17.4803 138.092 17.4045L138.777 15.1301C138.777 15.0543 138.777 15.0543 138.701 15.0543H133.677C133.601 15.0543 133.601 14.9785 133.601 14.9785L134.438 11.6427C134.438 11.5669 134.515 11.5669 134.515 11.5669H139.386C139.462 11.5669 139.462 11.4911 139.462 11.4911L140.527 9.2167C140.527 9.14088 140.527 9.14088 140.451 9.14088H132.155V8.98926Z" fill="#333333"/>
<path d="M194.718 8.91345H192.282C192.206 8.91345 192.206 8.91345 192.206 8.98927C192.206 8.98927 192.206 9.06508 192.206 9.14089L189.162 23.318C189.162 23.3938 189.162 23.3938 189.238 23.3938H191.673C191.749 23.3938 191.749 23.318 191.749 23.318L194.794 9.06508C194.794 8.91345 194.794 8.91345 194.718 8.91345Z" fill="#333333"/>
<path d="M153.847 14.5236C153.238 13.7655 152.248 13.3106 150.954 13.3106C149.28 13.3106 148.367 14.0688 147.682 14.6753L148.976 9.14089C148.976 9.14089 148.976 9.14089 148.976 9.06508C148.976 8.98927 148.976 8.91345 148.899 8.91345C148.823 8.91345 148.823 8.91345 148.747 8.91345H146.692C146.54 8.91345 146.464 8.91345 146.388 9.14089L144.257 18.6934C144.257 18.845 144.181 19.0724 144.181 19.2999C144.104 20.1338 144.181 21.1952 144.789 22.105C145.398 23.0147 146.464 23.7729 148.443 23.7729C151.715 23.7729 153.314 21.6501 153.999 19.9822C154.075 19.7548 154.151 19.5273 154.227 19.2999C154.303 19.1482 154.303 18.9966 154.303 18.845C154.303 18.7692 154.379 18.6176 154.379 18.5417C154.455 18.2385 154.455 17.9352 154.532 17.632C154.76 16.3432 154.455 15.2818 153.847 14.5236ZM151.944 18.4659C151.639 19.9064 150.574 21.271 148.823 21.271C147.301 21.271 146.692 20.2854 146.768 18.9966C146.768 18.845 146.844 18.6934 146.844 18.4659C147.149 17.0255 148.367 15.6608 150.117 15.6608C150.878 15.6608 151.335 15.8883 151.639 16.2673C151.944 16.6464 152.02 17.1771 152.02 17.7836C152.02 18.011 152.02 18.2385 151.944 18.4659Z" fill="#333333"/>
<path d="M143.267 8.83765C142.354 8.83765 141.593 9.59578 141.44 10.3539C141.44 10.4297 141.44 10.5055 141.364 10.5814C141.364 10.9604 141.44 11.2637 141.669 11.4911C141.897 11.7186 142.201 11.8702 142.658 11.8702C143.571 11.8702 144.333 11.1879 144.561 10.3539C144.561 10.2781 144.561 10.2023 144.561 10.1265C144.561 9.74741 144.485 9.44415 144.256 9.21671C144.028 8.98927 143.724 8.83765 143.267 8.83765Z" fill="#333333"/>
<path d="M143.496 13.5382H141.136C141.06 13.5382 140.984 13.614 140.984 13.6898L138.929 23.2423C138.929 23.3181 138.929 23.3181 139.005 23.3181H141.441C141.517 23.3181 141.517 23.2423 141.593 23.2423L143.648 13.614C143.572 13.614 143.572 13.5382 143.496 13.5382Z" fill="#333333"/>
<path d="M164.578 14.3722C163.969 13.6899 162.98 13.3108 161.838 13.3108C158.87 13.3108 156.282 15.3577 155.597 18.4661C155.521 18.7693 155.521 19.0726 155.445 19.3C155.369 20.5889 155.749 21.6503 156.434 22.4084C157.195 23.1665 158.261 23.5456 159.631 23.5456C161.153 23.5456 162.599 23.0149 164.045 21.6503C164.121 21.5744 164.121 21.4986 164.045 21.4228L162.751 20.2098C162.675 20.134 162.523 20.2098 162.523 20.2098C161.762 20.8921 161.001 21.4228 159.859 21.4228C158.641 21.4228 157.804 20.6647 157.804 19.3759C157.804 19.3 157.88 19.3 157.88 19.3H164.806C165.035 19.3 165.111 19.2242 165.111 19.0726L165.187 18.5419C165.263 18.087 165.339 17.708 165.339 17.3289C165.491 16.1159 165.263 15.1303 164.578 14.3722ZM162.903 17.2531C162.903 17.2531 162.903 17.3289 162.751 17.4047H158.261C158.185 17.4047 158.261 17.2531 158.261 17.2531C158.793 16.0401 159.783 15.2819 161.077 15.2819C161.762 15.2819 162.218 15.4336 162.523 15.7368C162.827 16.0401 162.98 16.4949 162.903 17.0256C162.98 17.1015 162.903 17.1773 162.903 17.2531Z" fill="#333333"/>
<path d="M179.648 13.3864H176.603C176.527 13.3864 176.527 13.3864 176.527 13.3864L177.136 10.8087C177.136 10.6571 177.136 10.6571 176.984 10.6571H174.701C174.548 10.6571 174.472 10.7329 174.472 10.8087C174.472 10.8087 174.472 10.8087 174.472 10.8845L173.94 13.4622L173.483 15.7366L172.494 20.0579C172.417 20.437 172.341 20.8161 172.341 21.1951C172.265 21.9533 172.417 22.5598 172.798 22.9389C173.255 23.3179 173.94 23.5454 175.005 23.5454C175.538 23.5454 176.375 23.4695 176.984 23.2421C177.06 23.2421 177.06 23.1663 177.06 23.0905L177.517 20.9677C177.517 20.8919 177.441 20.9677 177.441 20.9677L177.288 21.0435C176.984 21.271 176.375 21.3468 175.995 21.3468C175.538 21.3468 175.31 21.271 175.157 21.1193C175.005 20.9677 174.929 20.7403 175.005 20.3612C175.005 20.2096 175.005 20.0579 175.081 19.9063L175.995 15.8124C175.995 15.8124 175.995 15.8124 176.071 15.8124H178.582C178.658 15.8124 178.658 15.7366 178.658 15.7366L179.648 13.538C179.724 13.3864 179.724 13.3864 179.648 13.3864Z" fill="#333333"/>
<path d="M172.569 13.3866H172.417H172.265H171.96H170.514C169.373 13.4624 168.459 13.9931 168.003 14.5238C167.089 15.5094 166.785 17.0256 166.481 18.3903L165.415 23.2423C165.415 23.3181 165.415 23.3181 165.567 23.394H167.851C168.003 23.394 168.079 23.3181 168.079 23.2423L169.144 18.2386C169.297 17.7838 169.373 17.1014 169.677 16.6466C169.982 16.1917 170.438 15.8126 171.275 15.8126H172.265C172.341 15.8126 172.341 15.7368 172.417 15.661L172.569 13.3866Z" fill="#333333"/>
<path d="M188.02 14.3722C187.411 13.6899 186.421 13.3108 185.28 13.3108C182.312 13.3108 179.724 15.3577 179.039 18.4661C178.963 18.7693 178.963 19.0726 178.887 19.3C178.81 20.5889 179.191 21.6503 179.876 22.4084C180.637 23.1665 181.703 23.5456 183.073 23.5456C184.595 23.5456 186.041 23.0149 187.487 21.6503C187.563 21.5744 187.563 21.4986 187.487 21.4228L186.193 20.2098C186.117 20.134 185.965 20.2098 185.965 20.2098C185.204 20.8921 184.443 21.4228 183.301 21.4228C182.083 21.4228 181.246 20.6647 181.246 19.3759C181.246 19.3 181.322 19.3 181.322 19.3H188.248C188.476 19.3 188.553 19.2242 188.553 19.0726L188.629 18.5419C188.705 18.087 188.781 17.708 188.781 17.3289C188.857 16.1159 188.629 15.1303 188.02 14.3722ZM186.345 17.2531C186.345 17.2531 186.345 17.3289 186.193 17.4047H181.703C181.627 17.4047 181.703 17.2531 181.703 17.2531C182.235 16.0401 183.225 15.2819 184.519 15.2819C185.204 15.2819 185.66 15.4336 185.965 15.7368C186.269 16.0401 186.421 16.4949 186.345 17.0256C186.345 17.1015 186.345 17.1773 186.345 17.2531Z" fill="#333333"/>
<path d="M88.2115 6.63913C87.907 6.33588 87.5265 6.10844 87.0698 6.18425C86.4609 6.18425 85.852 6.56332 85.1671 7.32145C84.6343 8.00377 84.1776 8.68609 83.8732 9.36841C83.721 9.74747 83.4926 10.2782 83.2643 11.0363L82.4271 12.8558C82.1988 13.2349 82.0465 13.9172 81.8943 14.9028L81.3616 16.8739V17.1772V17.4046L80.7527 18.6176L80.2199 19.2999L78.8499 20.6646L78.1649 21.0437C78.0127 21.0437 77.8605 21.1195 77.6322 21.2711C77.4799 21.4227 77.3277 21.4985 77.1755 21.4985C76.795 21.4985 76.4905 21.0437 76.4144 19.9823L76.3383 19.6032L75.9578 19.0725C75.5011 18.6176 75.1205 18.466 74.8161 18.466C74.5117 18.5418 74.1311 18.7693 73.9028 19.1483L72.7611 21.1195C72.4567 21.4227 72.1523 21.5743 71.7717 21.5743C72.2284 20.2097 72.6089 19.2999 72.9895 18.6176C73.2939 18.2386 73.5983 17.8595 73.8267 17.6321H74.8922L75.425 18.3144C75.6533 18.6176 75.8816 18.6934 76.11 18.6176C76.3383 18.5418 76.4905 18.466 76.5666 18.3144C76.6427 18.1627 76.7189 18.0111 76.7189 17.7837C76.7189 17.4046 76.4144 17.0255 76.11 16.5707C75.6533 16.1158 75.1967 15.8883 74.6639 15.7367C74.055 15.6609 73.4461 15.7367 72.9134 15.8883C72.6089 15.9642 72.3045 16.1158 72.0761 16.2674C71.9239 16.3432 71.8478 16.419 71.7717 16.5707L71.4673 16.8739C71.2389 16.9497 71.0867 17.1772 70.8584 17.4804L69.4123 21.0437C69.3362 21.4227 69.3362 21.726 69.4884 21.9534L69.7928 22.7115C69.869 22.939 69.9451 23.0906 70.0973 23.2422C70.4017 23.5455 70.7062 23.7729 71.0867 23.8487C71.9239 24.0004 72.7611 23.6971 73.5983 22.939L75.0444 21.8018C75.1205 21.8018 75.1967 21.8776 75.3489 22.105L75.425 22.4083L75.7294 22.7115L76.7189 23.4697C76.9472 23.6213 77.2516 23.6971 77.48 23.6971C78.0127 23.7729 78.4694 23.6213 79.0022 23.3939L79.611 23.0906L80.1438 22.6357C80.4482 22.4841 80.6005 22.4083 80.7527 22.4083C80.7527 22.4083 80.8288 22.4083 80.9049 22.4841V22.6357L81.2093 25.2134L81.666 27.1087C81.8943 27.6394 82.1988 28.0185 82.6554 28.3217C83.1121 28.7008 83.5687 28.8524 84.1015 28.8524C84.406 28.5492 84.406 28.0943 84.1015 27.412C83.7971 26.8813 83.6449 26.4264 83.6449 25.9715L83.5687 21.8018C83.4926 20.9678 83.5687 20.3613 83.721 19.8306C83.8732 19.3758 84.1015 18.8451 84.5582 18.3144L85.6237 16.7981L86.537 14.9786L88.8964 9.36841C89.1248 8.7619 89.1248 8.15539 89.0487 7.70052C88.6681 7.32145 88.4398 6.94238 88.2115 6.63913ZM85.0909 11.0363C85.1671 10.6572 85.3193 10.354 85.3954 10.2024C85.6237 9.74747 86.0804 9.21678 86.6131 8.68609H86.6893V8.98934L86.537 9.52003L85.1671 13.0074L84.406 14.4479C84.3298 14.7512 84.1776 14.9028 84.1015 14.9786H84.0254V14.9028V14.6753L84.4821 12.6284C84.5582 12.3251 84.7104 12.0219 84.7865 11.7944L85.0909 11.0363Z" fill="#333333"/>
<path d="M69.3363 23.4697L68.8035 22.8631C68.4991 22.4083 68.2708 21.8018 68.1185 21.0436L67.8902 18.9967L67.3574 17.3288C67.1291 16.9497 66.8247 16.7223 66.368 16.5706H65.1502L64.4653 16.9497C64.2369 17.1013 64.0086 17.3288 63.8564 17.4804C63.7042 17.632 63.5519 17.8595 63.4758 18.2385L63.0953 18.9967C62.9431 18.9209 62.7908 18.6934 62.7908 18.466V18.1627V17.8595L62.182 16.1916C61.9536 15.7367 61.5731 15.2818 61.1925 14.9028C60.7359 14.5995 60.2031 14.2962 59.7464 14.2204C59.5181 14.1446 59.2137 14.1446 58.757 14.2204L57.9198 14.2962C57.5393 14.3721 57.1587 14.5995 56.9304 14.9028L56.2454 15.9641C55.941 16.419 55.7126 16.7981 55.4843 16.9497C55.3321 17.1013 55.1798 17.3288 54.9515 17.632L54.1904 19.2999L53.8099 19.9822C53.6576 20.2855 53.5815 20.8162 53.5815 21.5743C53.5815 22.1808 53.6577 22.6357 53.886 23.0148C54.1904 23.5455 54.571 23.8487 55.1799 24.0762C55.9409 24.3794 56.4737 24.4552 56.9304 24.3794C57.0826 24.3794 57.3109 24.2278 57.6154 24.0003L58.2242 23.6971C58.5287 23.4697 58.757 23.2422 58.8331 22.7873C59.0615 22.1808 59.0615 21.3469 58.8331 20.2855C58.6809 19.6032 58.5287 19.0725 58.5287 18.7692C58.5287 18.1627 58.6048 17.7078 58.9092 17.3288L59.1376 17.0255C59.2137 16.9497 59.2137 16.7981 59.1376 16.7223L58.9853 16.419C58.9853 16.2674 58.9853 16.2674 59.1376 16.2674C59.5181 16.2674 59.8226 16.3432 60.0509 16.7223C60.2792 17.0255 60.3553 17.4046 60.4314 17.9353L60.812 22.1808C60.812 22.4841 60.8881 22.7873 61.0403 23.0148C61.2686 23.3938 61.5731 23.6971 62.0297 23.8487C62.4864 24.0003 62.9431 23.9245 63.3236 23.7729C63.7042 23.5455 64.0086 23.2422 64.2369 22.7115L64.5414 21.3469C64.6175 20.7404 64.7697 20.2855 64.998 19.9822L65.2264 19.679H65.3025L65.4547 19.8306C65.6069 19.9822 65.7591 20.1339 65.8352 20.3613C65.9114 20.5887 66.1397 21.0436 66.2919 21.8018C66.4441 22.4083 66.6725 22.8631 66.9008 23.1664C67.2052 23.6213 67.6619 24.0003 68.1946 24.152C68.7274 24.3794 69.2602 24.4552 69.793 24.3036V24.2278L69.3363 23.4697ZM56.5498 18.5418C56.9304 18.5418 57.0826 18.9209 57.0065 19.7548C56.9304 20.4371 56.7782 21.1194 56.5498 21.8018C56.3976 22.105 56.3215 22.2566 56.1693 22.3325C55.941 22.4841 55.8648 22.5599 55.6365 22.4841C55.4843 22.4841 55.4082 22.3325 55.4082 22.0292C55.4082 21.8018 55.4082 21.4227 55.4843 21.0436L55.7887 20.0581C56.0171 19.5274 56.2454 18.9967 56.5498 18.5418Z" fill="#333333"/>
<path d="M30.0637 6.86646C29.6832 6.56321 29.1504 6.18414 28.5415 5.72926C28.161 5.50182 27.5521 5.19857 26.791 4.97113C26.3344 4.8195 26.0299 4.74369 25.8016 4.66788L24.8122 4.51625C24.5077 4.44044 24.1272 4.36462 23.8227 4.36462H22.8333L20.55 4.74369C20.1695 4.74369 19.865 4.8195 19.7128 5.04694C19.5606 5.19857 19.4084 5.50182 19.3322 5.72926C19.2561 6.03252 19.18 6.25996 19.2561 6.4874C19.3322 6.71484 19.4845 6.86646 19.7128 7.01809C20.0172 7.16972 20.3978 7.16972 20.7783 7.16972L23.975 6.79065L26.9432 7.16972C27.3238 7.24553 27.5521 7.32134 27.7804 7.39716C28.161 7.54878 28.6177 7.92785 29.0743 8.45854C29.531 8.98923 29.7593 9.44411 29.6832 9.97481C29.6071 10.5055 29.3788 10.8846 28.846 11.3394L27.6282 12.325C27.0193 12.7041 26.5627 12.8557 26.2582 12.8557L26.4866 12.2492L26.6388 11.6427L26.7149 10.3539L26.9432 9.74737L27.0193 9.14086C27.0193 8.83761 27.0193 8.53435 26.791 8.2311C26.5627 7.77622 26.2582 7.39716 25.8777 7.32134H25.1927C24.9644 7.39716 24.736 7.54878 24.5838 7.70041C24.2794 8.00366 24.2033 8.38273 24.1272 8.98923L23.5183 12.7041C23.3661 13.159 23.2139 13.4622 22.9094 13.6138C22.6811 13.7655 22.3766 13.6138 22.0722 13.0832L21.6917 12.5525C21.5394 12.4008 21.3872 12.325 21.1589 12.2492C20.7783 12.1734 20.4739 12.2492 20.2456 12.6283C20.0172 13.0073 20.0172 13.3864 20.2456 13.7655C20.3978 14.1445 20.6261 14.4478 21.0067 14.751C21.1589 14.8269 21.3872 14.9785 21.7678 15.1301L22.5289 15.5092C22.8333 15.6608 22.9094 16.0399 22.8333 16.4947C22.8333 16.7222 22.7572 17.1771 22.5289 17.7836L21.3872 25.2891L21.1589 25.9714C21.0828 26.1988 21.0828 26.4263 21.235 26.6537C21.4633 26.957 21.92 27.1844 22.3766 27.1844C22.9094 27.1844 23.29 27.0328 23.5183 26.6537C23.7466 26.3505 23.8227 25.9714 23.8988 25.4407L24.0511 23.5454C24.1272 22.7114 24.2033 22.0291 24.3555 21.4226L24.8122 19.3757C24.8883 18.7691 24.9644 18.0868 24.9644 17.5561C25.0405 16.8738 25.0405 16.4947 25.1927 16.1915C25.3449 15.8124 25.7255 15.5092 26.2582 15.3575L28.0849 14.751C28.4654 14.5994 28.9982 14.2204 29.6832 13.7655C30.2921 13.3106 30.7487 12.8557 31.0532 12.5525C31.7382 11.7185 31.8904 10.6571 31.5859 9.51993C31.5859 8.53435 30.9771 7.6246 30.0637 6.86646Z" fill="#333333"/>
<path d="M53.0486 15.3577C53.0486 15.1302 53.0486 14.9028 52.8963 14.6754C52.7441 14.4479 52.5919 14.2963 52.3636 14.2205C52.1353 14.1447 51.8308 14.0688 51.6025 14.0688C51.3742 14.0688 51.1458 14.1447 50.8414 14.2963L50.3086 14.4479C50.1564 14.5237 50.0042 14.5995 50.0042 14.5995L49.7758 14.827L49.4714 14.9028L48.9386 15.7367L48.7864 15.8884C48.7103 15.9642 48.7103 16.04 48.7103 16.04L48.5581 16.4191C48.3298 16.7223 48.1775 16.9498 48.1775 17.1014C48.1775 17.3288 48.1775 17.5563 48.1775 17.8595C48.2536 18.3902 48.4059 18.9209 48.7864 19.5274L49.7758 20.9679C50.1564 21.5744 50.3847 22.1051 50.3086 22.5599C50.2325 22.8632 49.9281 23.1664 49.3953 23.3181L48.1775 23.3939L47.4164 23.1664C47.112 23.0906 46.8837 23.1664 46.7314 23.3181C46.7314 23.4697 46.7314 23.6971 46.7314 23.9246L47.4164 25.0618C47.5687 25.2892 47.9492 25.4408 48.482 25.5167C49.4714 25.5925 50.3086 25.5167 51.0697 25.2892C51.5264 25.1376 51.9069 24.9101 52.2114 24.6069C52.5158 24.2278 52.7441 23.9246 52.8202 23.3939C52.9725 22.7116 52.668 21.8776 51.983 21.0437L51.298 19.9823C50.9936 19.6032 50.8414 19.2241 50.8414 18.7693C50.7653 18.1628 50.8414 17.7079 51.2219 17.253C51.3742 16.9498 51.7547 16.6465 52.2875 16.2674C52.7441 16.04 53.0486 15.6609 53.0486 15.3577Z" fill="#333333"/>
<path d="M48.1014 16.5708C48.1775 16.495 48.1775 16.2675 48.1014 16.0401C48.0253 15.661 47.9492 15.5094 47.7969 15.4336C47.0358 15.1303 46.427 15.0545 45.8942 15.1303C45.5136 15.1303 45.057 15.4336 44.6003 15.8126L43.4587 16.874L42.5454 18.0112C42.2409 18.5419 41.7843 18.8452 41.4798 18.9968L41.2515 18.3903C41.2515 18.3145 41.1754 18.0112 41.1754 17.708C41.1754 17.3289 40.947 16.9498 40.6426 16.7224C40.3382 16.4192 40.0337 16.3433 39.6532 16.2675C39.2726 16.1917 38.8921 16.2675 38.6637 16.4192L38.2071 16.874L37.8265 17.4047L36.9893 18.3145C36.6849 18.6177 36.076 19.3759 35.2388 20.3614L34.021 21.8777C33.5644 22.4084 33.1838 22.6358 32.8033 22.4842C32.4227 22.4084 32.1944 22.1051 32.0422 21.5745C31.9661 21.0438 32.0422 20.7405 32.3466 20.4373L35.0105 19.1484L36.2282 18.3145L36.8371 17.7838C36.9132 17.2531 36.761 16.7224 36.4566 16.1917C36.1521 15.7368 35.7716 15.282 35.3149 14.9787C34.7821 14.5996 34.3255 14.448 33.7166 14.3722C33.1077 14.3722 32.575 14.448 32.0422 14.7513C31.0528 15.3578 30.2917 16.3433 29.9111 17.5564L29.6828 18.2387L29.6067 18.3903L29.4545 18.4661H28.6934L28.2367 18.5419C28.1606 18.6177 28.0845 18.6935 28.0845 18.8452C28.0845 19.0726 28.0845 19.3001 28.2367 19.5275L28.7695 20.134L29.2261 20.5131C29.3783 20.6647 29.4544 20.8921 29.5306 21.2712L29.9111 22.0293C30.4439 23.1665 30.9766 23.9247 31.6616 24.2279C32.4988 24.6828 33.4122 24.7586 34.1733 24.5312C34.7821 24.3795 35.391 23.9247 35.9999 23.3182L37.5221 21.4986C38.131 20.7405 38.7399 20.2098 39.2726 19.9066L39.501 21.2712L39.5771 22.2568L39.501 23.1665C39.501 23.5456 39.5771 23.8489 39.6532 24.0763C39.8815 24.5312 40.2621 24.7586 40.6426 24.9102C41.0993 24.9861 41.4798 24.7586 41.8604 24.3037L42.5454 22.7117L43.5348 21.347L44.372 19.6033C44.6764 18.921 45.057 18.3903 45.4375 18.0112C45.742 17.6322 46.1225 17.3289 46.6553 17.1015L47.7208 16.6466L48.1014 16.5708ZM34.706 16.5708C34.7821 16.7982 34.706 16.9498 34.706 17.1015C34.706 17.4047 34.4777 17.6322 34.0972 17.8596L32.575 18.8452C32.2705 18.9968 32.0422 19.0726 31.89 19.0726H31.7377C31.6616 19.0726 31.6616 19.0726 31.6616 18.921L31.7377 18.6177C31.7377 18.4661 31.8139 18.3145 31.9661 18.1629L32.6511 17.1773C32.9555 16.7224 33.1838 16.3433 33.4883 16.1917C33.8688 15.8885 34.2494 15.8126 34.5538 16.1159C34.5538 16.1917 34.6299 16.4192 34.706 16.5708Z" fill="#333333"/>
<path d="M2.2833 38.7839H108V43.7839H0V41.2839C0 39.8673 0.989429 38.7839 2.2833 38.7839Z" fill="#00B0EA"/>
<path d="M245.683 18.5418C245.911 21.5743 247.509 22.9389 250.401 22.9389C253.065 22.9389 254.816 21.4227 255.272 19.0724C255.272 19.0724 255.349 18.6176 255.349 18.2385C255.349 18.0869 255.349 17.9352 255.349 17.8594C255.349 16.4948 254.892 15.2818 254.131 14.4478C253.37 13.6139 252.304 13.0832 251.01 13.0832C249.336 13.0832 248.575 13.8413 248.118 14.4478V8.91347C248.118 8.83765 248.042 8.76184 247.966 8.76184H245.835C245.759 8.76184 245.683 8.83765 245.683 8.91347V18.5418ZM250.401 15.4334C252 15.4334 252.913 16.7222 252.913 18.0869C252.913 19.6031 252 20.7403 250.401 20.7403C248.803 20.7403 247.966 19.679 247.966 18.0869C247.966 16.6464 248.803 15.4334 250.401 15.4334Z" fill="#333333"/>
<path d="M256.414 22.3324C256.414 22.4082 256.49 22.484 256.566 22.484H258.621C258.697 22.484 258.773 22.4082 258.773 22.3324V8.98927C258.773 8.91346 258.697 8.83765 258.621 8.83765H256.566C256.49 8.83765 256.414 8.91346 256.414 8.98927V22.3324Z" fill="#333333"/>
<path d="M278.181 13.3107H276.05C275.974 13.3107 275.898 13.3865 275.822 13.4623L273.691 19.4515C273.691 19.5274 273.615 19.5274 273.615 19.4515L271.484 13.4623C271.484 13.3865 271.332 13.3107 271.255 13.3107H269.048C268.972 13.3107 268.896 13.3865 268.896 13.4623V13.5381L272.321 22.3324C272.321 22.4083 272.473 22.4841 272.549 22.4841H274.756C274.833 22.4841 274.909 22.4083 274.985 22.3324L278.334 13.4623C278.334 13.3865 278.334 13.3107 278.181 13.3107Z" fill="#333333"/>
<path d="M264.786 13.0832C263.416 13.0832 262.198 13.5381 261.285 14.372C260.372 15.206 259.991 16.419 259.991 17.8594C259.991 19.2999 260.372 20.5129 261.285 21.3468C262.198 22.1808 263.416 22.6357 264.786 22.6357C266.232 22.6357 267.374 22.105 268.439 20.892C268.516 20.8161 268.516 20.7403 268.439 20.6645L266.993 19.5273C266.917 19.4515 266.841 19.4515 266.765 19.5273C266.232 20.2096 265.623 20.6645 264.558 20.6645C263.34 20.6645 262.503 19.9064 262.351 18.6176H268.439H268.82C268.896 18.6176 268.972 18.5417 268.972 18.4659V18.1627V18.0111C268.972 16.419 268.516 15.206 267.754 14.372C266.993 13.5381 266.08 13.0832 264.786 13.0832ZM266.537 16.9497H262.351C262.503 15.7367 263.34 14.9785 264.482 14.9785C265.852 14.9027 266.537 15.6608 266.537 16.9497C266.613 16.9497 266.613 16.9497 266.537 16.9497ZM281.454 13.3106H279.399C279.323 13.3106 279.247 13.3864 279.247 13.4623V22.3324C279.247 22.4082 279.323 22.484 279.399 22.484H281.454C281.53 22.484 281.606 22.4082 281.606 22.3324V13.4623C281.606 13.3864 281.53 13.3106 281.454 13.3106ZM299.568 11.6427H301.167C301.243 11.6427 301.395 11.5669 301.395 11.5669L303.983 8.98927C304.059 8.91346 303.983 8.91346 303.907 8.91346H301.471C301.395 8.91346 301.319 8.91346 301.319 8.91346C301.319 8.91346 301.243 8.98927 301.243 9.06509L299.492 11.6427C299.492 11.5669 299.492 11.6427 299.568 11.6427ZM240.507 13.0832C239.061 13.0832 237.843 13.5381 236.854 14.5236C236.854 14.5995 236.778 14.6753 236.854 14.6753L237.919 15.7367C237.996 15.8125 238.072 15.8125 238.148 15.7367C238.757 15.206 239.442 14.9027 240.279 14.9027C241.497 14.9027 242.258 15.4334 242.258 16.5706V16.7222H241.725C240.583 16.7222 239.137 16.798 237.996 17.1771C236.854 17.632 236.093 18.3901 236.093 19.9064C236.093 21.7259 237.615 22.6357 239.289 22.6357C240.507 22.6357 241.497 22.1808 242.182 21.1952V21.6501C242.258 22.0292 242.41 22.4082 242.943 22.4082H244.16C244.237 22.4082 244.313 22.3324 244.313 22.2566V21.8775V17.1771C244.313 16.5706 244.313 15.5092 243.856 14.6753C243.475 13.8413 242.41 13.0832 240.507 13.0832ZM242.105 18.845C242.105 20.058 241.42 20.8161 239.898 20.892C239.518 20.892 239.289 20.8161 239.061 20.5887C238.757 20.3613 238.604 20.1338 238.604 19.7548C238.604 19.1483 238.985 18.845 239.67 18.6176C240.355 18.4659 241.192 18.3901 241.801 18.3901H242.258V18.845H242.105ZM293.099 8.83765C292.262 8.83765 291.653 9.44415 291.653 10.2023C291.653 10.8846 292.262 11.5669 293.099 11.5669C293.936 11.5669 294.545 10.9604 294.545 10.2023C294.545 9.44415 293.936 8.83765 293.099 8.83765ZM314.029 14.2204C313.497 13.5381 312.659 13.0832 311.442 13.0832C309.996 13.0832 309.158 13.7655 308.702 14.5995V13.4623C308.702 13.3864 308.626 13.3106 308.549 13.3106H306.571C306.494 13.3106 306.418 13.3864 306.418 13.4623V22.3324C306.418 22.4082 306.494 22.484 306.571 22.484H308.626C308.702 22.484 308.778 22.4082 308.778 22.3324V17.4804C308.778 16.2673 309.311 15.2818 310.833 15.206C311.594 15.206 311.974 15.585 312.203 16.1157C312.431 16.6464 312.431 17.3287 312.431 17.7836V21.8775V22.3324C312.431 22.4082 312.507 22.484 312.583 22.484H314.638C314.714 22.484 314.79 22.4082 314.79 22.3324V16.7222C314.714 15.8125 314.562 14.9027 314.029 14.2204ZM300.253 13.0832C298.883 13.0832 297.818 13.5381 296.905 14.372C295.991 15.206 295.611 16.419 295.611 17.8594C295.611 19.2999 295.991 20.5129 296.905 21.3468C297.818 22.1808 298.883 22.6357 300.253 22.6357C301.623 22.6357 302.765 22.1808 303.602 21.3468C304.516 20.5129 304.896 19.2999 304.896 17.8594C304.896 16.419 304.516 15.206 303.602 14.372C302.765 13.6139 301.7 13.0832 300.253 13.0832ZM300.253 20.5129C298.655 20.5129 297.97 19.2241 297.97 17.8594C297.97 16.4948 298.655 15.206 300.253 15.206C301.928 15.206 302.537 16.4948 302.537 17.8594C302.613 19.2999 301.928 20.5129 300.253 20.5129ZM280.389 8.83765C279.552 8.83765 278.943 9.44415 278.943 10.2023C278.943 10.8846 279.552 11.5669 280.389 11.5669C281.226 11.5669 281.835 10.9604 281.835 10.2023C281.835 9.44415 281.226 8.83765 280.389 8.83765ZM294.165 13.3106H292.11C292.034 13.3106 291.957 13.3864 291.957 13.4623V22.3324C291.957 22.4082 292.034 22.484 292.11 22.484H294.165C294.241 22.484 294.317 22.4082 294.317 22.3324V13.4623C294.317 13.3864 294.241 13.3106 294.165 13.3106ZM288.076 17.1013C287.467 16.9497 286.858 16.8739 286.401 16.7222C285.945 16.5706 285.716 16.3432 285.716 15.9641C285.716 15.6608 285.869 15.4334 286.097 15.2818C286.325 15.1301 286.63 15.0543 286.934 15.0543C287.695 15.0543 288.228 15.3576 288.609 15.8883C288.685 15.9641 288.761 15.9641 288.837 15.8883L290.207 14.6753C290.283 14.5995 290.283 14.5236 290.207 14.4478C289.446 13.5381 288.228 13.159 287.01 13.159C286.097 13.159 285.184 13.3864 284.499 13.8413C283.814 14.2962 283.357 15.0543 283.357 16.1157C283.357 17.8594 284.651 18.3901 285.869 18.6934C286.478 18.845 287.086 18.9208 287.543 19.1483C288 19.2999 288.304 19.5273 288.304 19.9822C288.304 20.2855 288.076 20.5887 287.848 20.7403C287.543 20.892 287.163 20.9678 286.858 20.9678C285.945 20.9678 285.412 20.5129 284.803 19.9822C284.727 19.9064 284.651 19.9064 284.575 19.9822L283.281 21.1194L283.205 21.1952C283.129 21.271 283.129 21.3468 283.205 21.4227L283.433 21.6501C284.346 22.484 285.412 22.7873 286.706 22.7873C287.619 22.7873 288.609 22.5599 289.37 22.105C290.131 21.6501 290.664 20.892 290.664 19.8306C290.587 17.9352 289.294 17.4045 288.076 17.1013Z" fill="#333333"/>
<path d="M231.069 10.9604C232.363 11.0362 233.048 11.4153 233.961 12.5525C234.038 12.7041 234.114 12.7041 234.266 12.6283L235.712 11.5669C235.864 11.4911 235.864 11.3395 235.788 11.2637C234.799 9.6716 233.429 9.06509 232.363 8.83765C232.135 8.76184 231.678 8.76184 231.222 8.76184C229.319 8.76184 227.873 9.44416 226.731 10.733C225.589 11.946 225.057 13.7655 225.057 15.8883C225.057 17.9352 225.589 19.7548 226.731 20.9678C227.873 22.1808 229.395 22.8631 231.222 22.8631C232.972 22.8631 234.494 22.2566 235.56 20.7403C235.636 20.5887 235.636 20.5129 235.56 20.4371L233.961 19.1483C233.885 19.0724 233.809 19.1483 233.733 19.1483C232.972 20.2096 232.135 20.5129 231.222 20.5129C228.786 20.5129 227.416 18.4659 227.416 15.6608C227.34 13.2348 228.558 10.9604 231.069 10.9604Z" fill="#333333"/>
<path d="M321.717 38.7839H216V43.7839H324V41.2839C324 39.8673 322.934 38.7839 321.717 38.7839Z" fill="#DD2534"/>
<path d="M108.229 0.346558H107.772V31.3542H108.229V0.346558Z" fill="#6E6E70"/>
<path d="M216.228 0.346558H215.771V31.3542H216.228V0.346558Z" fill="#6E6E70"/>
</svg>
